<svg width="21" height="21" viewBox="0 0 21 21" fill="none" xmlns="http://www.w3.org/2000/svg">
<path d="M9.30834 1.35391C9.36688 1.59102 9.32034 1.83975 9.17895 2.0454C9.03755 2.25106 8.81289 2.39681 8.55434 2.45061C6.89147 2.79829 5.3933 3.62418 4.27845 4.80776C3.16361 5.99134 2.49046 7.47066 2.35723 9.02982C2.224 10.589 2.63767 12.1464 3.53787 13.4748C4.43807 14.8031 5.77768 15.8329 7.3612 16.4138C8.94472 16.9947 10.6893 17.0964 12.3402 16.704C13.9912 16.3115 15.4622 15.4455 16.5385 14.2323C17.6149 13.0191 18.2402 11.5223 18.3233 9.96018C18.4064 8.39809 17.9428 6.85254 17.0003 5.54908C16.9276 5.44877 16.8772 5.33631 16.8519 5.21813C16.8266 5.09995 16.827 4.97836 16.8529 4.8603C16.9053 4.62187 17.0589 4.4123 17.2798 4.27769C17.5008 4.14308 17.771 4.09446 18.031 4.14252C18.1597 4.16632 18.2821 4.21314 18.3911 4.28031C18.5001 4.34748 18.5936 4.43367 18.6663 4.53398C19.756 6.03619 20.3361 7.80069 20.3333 9.60486C20.3333 14.6693 15.8563 18.7746 10.3333 18.7746C4.81034 18.7746 0.333344 14.6693 0.333344 9.60486C0.333344 5.24005 3.65834 1.58866 8.11234 0.66251C8.37092 0.608831 8.64216 0.651509 8.86644 0.781161C9.09071 0.910813 9.24966 1.11683 9.30834 1.35391ZM11.3333 1.36491C11.3332 1.22736 11.3665 1.0915 11.4308 0.967223C11.4951 0.842941 11.5888 0.733353 11.705 0.64642C11.8213 0.559487 11.9572 0.497391 12.1029 0.464645C12.2486 0.431898 12.4004 0.429323 12.5473 0.457107L12.6623 0.485533L15.6493 1.39884C15.892 1.47238 16.0947 1.62832 16.2159 1.83465C16.3371 2.04097 16.3676 2.28202 16.301 2.50829C16.2345 2.73456 16.076 2.92887 15.8581 3.05133C15.6402 3.17379 15.3794 3.2151 15.1293 3.16677L15.0173 3.13926L13.3333 2.62392V9.60486C13.333 10.181 13.1355 10.7424 12.7686 11.2101C12.4017 11.6777 11.884 12.028 11.2884 12.2114C10.6928 12.3948 10.0495 12.4021 9.44916 12.2323C8.84882 12.0625 8.32175 11.7242 7.9423 11.265C7.56286 10.8059 7.35019 10.2491 7.3343 9.67316C7.31841 9.09725 7.50009 8.53129 7.85372 8.05513C8.20735 7.57896 8.71508 7.21661 9.30529 7.0192C9.89551 6.82178 10.5384 6.79925 11.1433 6.9548L11.3333 7.00982V1.36583V1.36491Z" fill="#F8F8F8"/>
</svg>
